<svg xmlns="http://www.w3.org/2000/svg" version="1.1" xmlns:xlink="http://www.w3.org/1999/xlink" xmlns:svgjs="http://svgjs.dev/svgjs" width="2000" height="1500" viewBox="0 0 2000 1500"><rect width="2000" height="1500" fill="#fa6402"></rect><g transform="matrix(0.4444444444444444,0,0,0.4444444444444444,555.5555555555557,250)"><svg viewBox="0 0 320 360" data-background-color="#fa6402" preserveAspectRatio="xMidYMid meet" height="2250" width="2000" xmlns="http://www.w3.org/2000/svg" xmlns:xlink="http://www.w3.org/1999/xlink"><g id="tight-bounds" transform="matrix(1,0,0,1,0,0)"><svg viewBox="0 0 320 360" height="360" width="320"><g><svg></svg></g><g><svg viewBox="0 0 320 360" height="360" width="320"><g><path d="M160 42.18c72.417 0 131.943 56.114 137.63 127.014h22.37c-1.137-17.82-5.308-34.882-12.133-51.185-7.962-18.957-19.716-36.398-34.502-50.805-14.787-14.787-31.848-26.161-50.806-34.503-20.095-8.341-40.948-12.891-62.559-12.891-21.611 0-42.464 4.171-62.559 12.512-18.957 7.962-36.398 19.716-50.806 34.503-14.787 14.787-26.161 31.848-34.502 50.805-6.825 16.303-10.995 33.744-12.133 51.185h22.37c5.687-70.521 65.213-126.635 137.63-126.635zM160 318.199c-72.417 0-131.943-56.114-137.63-127.014h-22.37c1.137 17.82 5.308 34.882 12.133 51.185 7.962 18.957 19.716 36.398 34.502 50.805 14.787 14.787 31.848 26.161 50.806 34.503 19.716 8.341 40.569 12.512 62.559 12.512 21.991 0 42.464-4.171 62.559-12.512 18.957-7.962 36.398-19.716 50.806-34.503 14.787-14.787 26.161-31.848 34.502-50.805 6.825-16.303 10.995-33.744 12.133-51.185h-22.37c-5.687 70.9-65.213 127.014-137.63 127.014z" fill="#f9f7f4" fill-rule="nonzero" stroke="none" stroke-width="1" stroke-linecap="butt" stroke-linejoin="miter" stroke-miterlimit="10" stroke-dasharray="" stroke-dashoffset="0" font-family="none" font-weight="none" font-size="none" text-anchor="none" style="mix-blend-mode: normal" data-fill-palette-color="tertiary"></path></g><g transform="matrix(1,0,0,1,86.622691292876,90)"><svg viewBox="0 0 146.754617414248 180" height="180" width="146.754617414248"><g><svg viewBox="0 0 146.754617414248 180" height="180" width="146.754617414248"><g><svg viewBox="0 0 146.754617414248 180" height="180" width="146.754617414248"><g id="textblocktransform"><svg viewBox="0 0 146.754617414248 180" height="180" width="146.754617414248" id="textblock"><g><svg viewBox="0 0 146.754617414248 180" height="180" width="146.754617414248"><g transform="matrix(1,0,0,1,0,0)"><svg width="146.754617414248" viewBox="3.76 -36.28 30.18 37.010000000000005" height="180" data-palette-color="#f9f7f4"><path d="M33.94-0.15L33.94-0.15 24.22 0.1Q24.12-3.08 24.07-6.2 24.02-9.33 23.93-12.5L23.93-12.5 14.75-12.06Q14.7-11.57 14.7-11.11 14.7-10.64 14.7-10.21L14.7-10.21Q14.7-7.47 14.92-4.76 15.14-2.05 15.38 0.63L15.38 0.63Q14.4 0.68 13.4 0.71 12.4 0.73 11.43 0.73L11.43 0.73Q9.52 0.73 7.59 0.66 5.66 0.59 3.76 0.59L3.76 0.59Q3.86-3.96 4-8.4 4.15-12.84 4.25-17.38L4.25-17.38Q4.35-21.83 4.37-26.17 4.39-30.52 4.44-34.91L4.44-34.91 12.6-34.91Q12.99-31.25 13.13-27.61 13.28-23.97 13.57-20.31L13.57-20.31Q15.92-20.36 18.21-20.36 20.51-20.36 22.9-20.41L22.9-20.41 23.39-36.23Q24.07-36.28 24.73-36.28 25.39-36.28 26.07-36.28L26.07-36.28Q28.03-36.28 29.91-36.18 31.79-36.08 33.69-35.74L33.69-35.74Q33.94-26.81 33.89-17.94 33.84-9.08 33.94-0.15Z" opacity="1" transform="matrix(1,0,0,1,0,0)" fill="#f9f7f4" class="wordmark-text-0" data-fill-palette-color="primary" id="text-0"></path></svg></g></svg></g></svg></g></svg></g><g></g></svg></g></svg></g></svg></g><defs></defs></svg><rect width="320" height="360" fill="none" stroke="none" visibility="hidden"></rect></g></svg></g></svg>